<svg width="25" height="24" viewBox="0 0 25 24" fill="none" xmlns="http://www.w3.org/2000/svg">
<path d="M12.5 10.0001V14.0001M12.5 17.0001H12.51M7.93847 20.0001H17.0616C18.8508 20.0001 19.7454 20.0001 20.2685 19.6239C20.725 19.2957 21.0223 18.7905 21.0875 18.2321C21.1622 17.5921 20.7278 16.81 19.8589 15.246L15.2973 7.03521C14.3841 5.39133 13.9274 4.56939 13.3255 4.29663C12.8009 4.05888 12.1992 4.05888 11.6745 4.29663C11.0726 4.56939 10.616 5.39133 9.70272 7.03521L5.14117 15.246C4.27226 16.81 3.8378 17.5921 3.91256 18.2321C3.97778 18.7905 4.27503 19.2957 4.73151 19.6239C5.25468 20.0001 6.14928 20.0001 7.93847 20.0001Z" stroke="#FFBD00" stroke-width="1.5" stroke-linecap="round" stroke-linejoin="round"/>
</svg>
