<svg width="22" height="22" viewBox="0 0 22 22" fill="none" xmlns="http://www.w3.org/2000/svg">
<path d="M10.5417 11H4.96688M4.80887 11.7308L3.88784 14.482C3.38339 15.9888 3.13117 16.7422 3.31218 17.2062C3.46937 17.6091 3.80697 17.9146 4.22354 18.0309C4.70324 18.1647 5.42777 17.8387 6.87684 17.1866L16.1667 13.0062C17.5811 12.3697 18.2883 12.0515 18.5069 11.6094C18.6968 11.2253 18.6968 10.7746 18.5069 10.3905C18.2883 9.94843 17.5811 9.6302 16.1667 8.99372L6.86082 4.80609C5.41612 4.15598 4.69377 3.83093 4.21455 3.96427C3.79837 4.08007 3.4608 4.38473 3.30307 4.7869C3.12145 5.24998 3.37097 6.00177 3.87003 7.50535L4.81066 10.3393C4.89637 10.5976 4.93923 10.7267 4.95614 10.8588C4.97116 10.9759 4.971 11.0946 4.95569 11.2117C4.93843 11.3437 4.89524 11.4727 4.80887 11.7308Z" stroke="#26ADC9" stroke-width="1.5" stroke-linecap="round" stroke-linejoin="round"/>
<path d="M10.5417 11H4.96688M4.80887 11.7308L3.88784 14.482C3.38339 15.9888 3.13117 16.7422 3.31218 17.2062C3.46937 17.6091 3.80697 17.9146 4.22354 18.0309C4.70324 18.1647 5.42777 17.8387 6.87684 17.1866L16.1667 13.0062C17.5811 12.3697 18.2883 12.0515 18.5069 11.6094C18.6968 11.2253 18.6968 10.7746 18.5069 10.3905C18.2883 9.94843 17.5811 9.6302 16.1667 8.99372L6.86082 4.80609C5.41612 4.15598 4.69377 3.83093 4.21455 3.96427C3.79837 4.08007 3.4608 4.38473 3.30307 4.7869C3.12145 5.24998 3.37097 6.00177 3.87003 7.50535L4.81066 10.3393C4.89637 10.5976 4.93923 10.7267 4.95614 10.8588C4.97116 10.9759 4.971 11.0946 4.95569 11.2117C4.93843 11.3437 4.89524 11.4727 4.80887 11.7308Z" stroke="black" stroke-opacity="0.2" stroke-width="1.5" stroke-linecap="round" stroke-linejoin="round"/>
</svg>
