<svg width="41" height="40" viewBox="0 0 41 40" fill="none" xmlns="http://www.w3.org/2000/svg">
<path d="M23.2451 27.2917L20.6597 24.9372C19.3917 23.7825 18.7577 23.2051 18.0393 22.9864C17.4065 22.7938 16.7307 22.7938 16.0979 22.9864C15.3794 23.2051 14.7455 23.7825 13.4775 24.9372L7.47091 30.0001M23.2451 27.2917L23.7716 26.8122C25.0396 25.6575 25.6735 25.0801 26.392 24.8614C27.0248 24.6688 27.7006 24.6688 28.3334 24.8614C29.0519 25.0801 29.6858 25.6575 30.9538 26.8122L33.669 29.4004M23.2451 27.2917L29.1201 33.2651M15.1666 33.3334H25.8333C28.6336 33.3334 30.0337 33.3334 31.1032 32.7884C32.0441 32.3091 32.809 31.5442 33.2883 30.6034C33.8333 29.5338 33.8333 28.1337 33.8333 25.3334V14.6667C33.8333 11.8665 33.8333 10.4664 33.2883 9.3968C32.809 8.45599 32.0441 7.69108 31.1032 7.21172C30.0337 6.66675 28.6336 6.66675 25.8333 6.66675H15.1666C12.3664 6.66675 10.9662 6.66675 9.89667 7.21172C8.95586 7.69108 8.19096 8.45599 7.71159 9.3968C7.16663 10.4664 7.16663 11.8665 7.16663 14.6667V25.3334C7.16663 28.1337 7.16663 29.5338 7.71159 30.6034C8.19096 31.5442 8.95586 32.3091 9.89667 32.7884C10.9662 33.3334 12.3664 33.3334 15.1666 33.3334ZM28.8333 15.0001C28.8333 16.841 27.3409 18.3334 25.5 18.3334C23.659 18.3334 22.1666 16.841 22.1666 15.0001C22.1666 13.1591 23.659 11.6667 25.5 11.6667C27.3409 11.6667 28.8333 13.1591 28.8333 15.0001Z" stroke="#26ADC9" stroke-width="1.5" stroke-linecap="round" stroke-linejoin="round"/>
<path d="M23.2451 27.2917L20.6597 24.9372C19.3917 23.7825 18.7577 23.2051 18.0393 22.9864C17.4065 22.7938 16.7307 22.7938 16.0979 22.9864C15.3794 23.2051 14.7455 23.7825 13.4775 24.9372L7.47091 30.0001M23.2451 27.2917L23.7716 26.8122C25.0396 25.6575 25.6735 25.0801 26.392 24.8614C27.0248 24.6688 27.7006 24.6688 28.3334 24.8614C29.0519 25.0801 29.6858 25.6575 30.9538 26.8122L33.669 29.4004M23.2451 27.2917L29.1201 33.2651M15.1666 33.3334H25.8333C28.6336 33.3334 30.0337 33.3334 31.1032 32.7884C32.0441 32.3091 32.809 31.5442 33.2883 30.6034C33.8333 29.5338 33.8333 28.1337 33.8333 25.3334V14.6667C33.8333 11.8665 33.8333 10.4664 33.2883 9.3968C32.809 8.45599 32.0441 7.69108 31.1032 7.21172C30.0337 6.66675 28.6336 6.66675 25.8333 6.66675H15.1666C12.3664 6.66675 10.9662 6.66675 9.89667 7.21172C8.95586 7.69108 8.19096 8.45599 7.71159 9.3968C7.16663 10.4664 7.16663 11.8665 7.16663 14.6667V25.3334C7.16663 28.1337 7.16663 29.5338 7.71159 30.6034C8.19096 31.5442 8.95586 32.3091 9.89667 32.7884C10.9662 33.3334 12.3664 33.3334 15.1666 33.3334ZM28.8333 15.0001C28.8333 16.841 27.3409 18.3334 25.5 18.3334C23.659 18.3334 22.1666 16.841 22.1666 15.0001C22.1666 13.1591 23.659 11.6667 25.5 11.6667C27.3409 11.6667 28.8333 13.1591 28.8333 15.0001Z" stroke="black" stroke-opacity="0.2" stroke-width="1.5" stroke-linecap="round" stroke-linejoin="round"/>
</svg>
