<svg width="26" height="27" viewBox="0 0 26 27" fill="none" xmlns="http://www.w3.org/2000/svg">
<path d="M13 2.125C10.6305 2.1278 8.35883 3.07032 6.68333 4.74582C5.00783 6.42132 4.0653 8.69299 4.06251 11.0625C4.05967 12.9989 4.69218 14.8827 5.86301 16.425C5.86301 16.425 6.10676 16.7459 6.14657 16.7922L13 24.875L19.8567 16.7882C19.8924 16.7451 20.137 16.425 20.137 16.425L20.1378 16.4226C21.3081 14.8809 21.9403 12.998 21.9375 11.0625C21.9347 8.69299 20.9922 6.42132 19.3167 4.74582C17.6412 3.07032 15.3695 2.1278 13 2.125ZM15.925 15.125L13 13.2636L10.075 15.125L10.5625 11.8149L8.12501 9.57806L11.5375 9.16613L13 6.1875L14.5535 9.16694L17.875 9.57806L15.4375 11.8149L15.925 15.125Z" fill="#BD202D"/>
</svg>
