<svg width="35" height="35" viewBox="0 0 70 70" fill="none" xmlns="http://www.w3.org/2000/svg">
<g clip-path="url(#clip0_571_1519)">
<path d="M35 5.83337C35.7736 5.83337 36.5155 6.14066 37.0624 6.68765C37.6094 7.23463 37.9167 7.97649 37.9167 8.75004V17.5C37.9167 18.2736 37.6094 19.0155 37.0624 19.5624C36.5155 20.1094 35.7736 20.4167 35 20.4167C34.2265 20.4167 33.4846 20.1094 32.9376 19.5624C32.3907 19.0155 32.0834 18.2736 32.0834 17.5V8.75004C32.0834 7.97649 32.3907 7.23463 32.9376 6.68765C33.4846 6.14066 34.2265 5.83337 35 5.83337ZM35 49.5834C35.7736 49.5834 36.5155 49.8907 37.0624 50.4376C37.6094 50.9846 37.9167 51.7265 37.9167 52.5V61.25C37.9167 62.0236 37.6094 62.7655 37.0624 63.3124C36.5155 63.8594 35.7736 64.1667 35 64.1667C34.2265 64.1667 33.4846 63.8594 32.9376 63.3124C32.3907 62.7655 32.0834 62.0236 32.0834 61.25V52.5C32.0834 51.7265 32.3907 50.9846 32.9376 50.4376C33.4846 49.8907 34.2265 49.5834 35 49.5834ZM64.1667 35C64.1667 35.7736 63.8594 36.5155 63.3124 37.0624C62.7655 37.6094 62.0236 37.9167 61.25 37.9167H52.5C51.7265 37.9167 50.9846 37.6094 50.4376 37.0624C49.8907 36.5155 49.5834 35.7736 49.5834 35C49.5834 34.2265 49.8907 33.4846 50.4376 32.9376C50.9846 32.3907 51.7265 32.0834 52.5 32.0834H61.25C62.0236 32.0834 62.7655 32.3907 63.3124 32.9376C63.8594 33.4846 64.1667 34.2265 64.1667 35ZM20.4167 35C20.4167 35.7736 20.1094 36.5155 19.5624 37.0624C19.0155 37.6094 18.2736 37.9167 17.5 37.9167H8.75004C7.97649 37.9167 7.23463 37.6094 6.68765 37.0624C6.14066 36.5155 5.83337 35.7736 5.83337 35C5.83337 34.2265 6.14066 33.4846 6.68765 32.9376C7.23463 32.3907 7.97649 32.0834 8.75004 32.0834H17.5C18.2736 32.0834 19.0155 32.3907 19.5624 32.9376C20.1094 33.4846 20.4167 34.2265 20.4167 35ZM55.6238 55.6238C55.0768 56.1706 54.3351 56.4777 53.5617 56.4777C52.7883 56.4777 52.0466 56.1706 51.4996 55.6238L45.3134 49.4375C44.7821 48.8875 44.4881 48.1507 44.4947 47.386C44.5014 46.6212 44.8081 45.8897 45.3489 45.3489C45.8897 44.8081 46.6212 44.5014 47.386 44.4947C48.1507 44.4881 48.8875 44.7821 49.4375 45.3134L55.6238 51.4967C55.895 51.7676 56.1101 52.0893 56.2569 52.4433C56.4037 52.7974 56.4792 53.177 56.4792 53.5602C56.4792 53.9435 56.4037 54.3231 56.2569 54.6772C56.1101 55.0312 55.895 55.3529 55.6238 55.6238ZM24.6867 24.6867C24.1397 25.2335 23.398 25.5407 22.6246 25.5407C21.8512 25.5407 21.1095 25.2335 20.5625 24.6867L14.3792 18.5034C13.8319 17.9565 13.5243 17.2146 13.524 16.4409C13.5238 15.6672 13.8309 14.925 14.3777 14.3777C14.9246 13.8305 15.6666 13.5228 16.4403 13.5226C17.214 13.5223 17.9561 13.8294 18.5034 14.3763L24.6867 20.5625C25.2335 21.1095 25.5407 21.8512 25.5407 22.6246C25.5407 23.398 25.2335 24.1397 24.6867 24.6867ZM14.3792 55.6238C13.8324 55.0768 13.5252 54.3351 13.5252 53.5617C13.5252 52.7883 13.8324 52.0466 14.3792 51.4996L20.5655 45.3134C20.8345 45.0348 21.1563 44.8126 21.5122 44.6597C21.868 44.5069 22.2508 44.4264 22.638 44.4231C23.0253 44.4197 23.4094 44.4935 23.7678 44.6401C24.1263 44.7868 24.4519 45.0034 24.7258 45.2772C24.9996 45.5511 25.2162 45.8767 25.3629 46.2352C25.5095 46.5936 25.5833 46.9777 25.5799 47.365C25.5766 47.7522 25.4961 48.135 25.3433 48.4908C25.1904 48.8466 24.9682 49.1685 24.6896 49.4375L18.5063 55.6238C18.2354 55.895 17.9137 56.1101 17.5597 56.2569C17.2056 56.4037 16.826 56.4792 16.4427 56.4792C16.0595 56.4792 15.6799 56.4037 15.3258 56.2569C14.9718 56.1101 14.6501 55.895 14.3792 55.6238ZM45.3134 24.6867C44.7666 24.1397 44.4594 23.398 44.4594 22.6246C44.4594 21.8512 44.7666 21.1095 45.3134 20.5625L51.4967 14.3763C52.0436 13.829 52.7855 13.5214 53.5592 13.5211C54.3329 13.5208 55.075 13.8279 55.6223 14.3748C56.1696 14.9217 56.4772 15.6636 56.4775 16.4373C56.4778 17.211 56.1707 17.9532 55.6238 18.5005L49.4375 24.6867C48.8906 25.2335 48.1488 25.5407 47.3755 25.5407C46.6021 25.5407 45.8603 25.2335 45.3134 24.6867Z" fill="#18C07A"/>
</g>
<defs>
<clipPath id="clip0_571_1519">
<rect width="70" height="70" fill="white"/>
</clipPath>
</defs>
</svg>
