<svg width="30" height="30" viewBox="0 0 70 70" fill="none" xmlns="http://www.w3.org/2000/svg">
<g clip-path="url(#clip0_571_1515)">
<path d="M35 64.1667C18.8913 64.1667 5.83337 51.1088 5.83337 35C5.83337 18.8913 18.8913 5.83337 35 5.83337C51.1088 5.83337 64.1667 18.8913 64.1667 35C64.1667 51.1088 51.1088 64.1667 35 64.1667ZM35 58.3334C41.1884 58.3334 47.1233 55.875 51.4992 51.4992C55.875 47.1233 58.3334 41.1884 58.3334 35C58.3334 28.8117 55.875 22.8767 51.4992 18.5009C47.1233 14.125 41.1884 11.6667 35 11.6667C28.8117 11.6667 22.8767 14.125 18.5009 18.5009C14.125 22.8767 11.6667 28.8117 11.6667 35C11.6667 41.1884 14.125 47.1233 18.5009 51.4992C22.8767 55.875 28.8117 58.3334 35 58.3334ZM32.0921 46.6667L19.7167 34.2913L23.8409 30.1671L32.0921 38.4184L48.5888 21.9188L52.7159 26.043L32.0921 46.6667Z" fill="#26ADC9"/>
</g>
<defs>
<clipPath id="clip0_571_1515">
<rect width="70" height="70" fill="white"/>
</clipPath>
</defs>
</svg>
