<svg width="32" height="30" viewBox="0 0 32 30" fill="none" xmlns="http://www.w3.org/2000/svg">
<path d="M20.5715 12.8572C22.087 12.8572 23.5404 12.2551 24.6121 11.1835C25.6837 10.1118 26.2857 8.6584 26.2857 7.14287C26.2857 5.62735 25.6837 4.1739 24.6121 3.10226C23.5404 2.03063 22.087 1.42859 20.5715 1.42859M26.2857 28.8572H30.8572V27.6183C30.8328 25.3042 30.0305 23.0656 28.5793 21.2629C27.1282 19.4602 25.1126 18.1982 22.8572 17.68M11.4286 12.8572C12.9441 12.8572 14.3976 12.2551 15.4692 11.1835C16.5408 10.1118 17.1429 8.6584 17.1429 7.14287C17.1429 5.62735 16.5408 4.1739 15.4692 3.10226C14.3976 2.03063 12.9441 1.42859 11.4286 1.42859C9.91308 1.42859 8.45962 2.03063 7.38799 3.10226C6.31635 4.1739 5.71431 5.62735 5.71431 7.14287C5.71431 8.6584 6.31635 10.1118 7.38799 11.1835C8.45962 12.2551 9.91308 12.8572 11.4286 12.8572ZM1.14288 28.8572H21.7143V27.6183C21.6997 26.2365 21.4073 24.8717 20.8547 23.6051C20.302 22.3385 19.5004 21.1959 18.4973 20.2453C17.4943 19.2947 16.3103 18.5555 15.0159 18.0716C13.7215 17.5877 12.343 17.3691 10.9623 17.4286C8.33439 17.5533 5.85359 18.678 4.02801 20.5724C2.20244 22.4668 1.17026 24.9876 1.14288 27.6183V28.8572Z" stroke="black" stroke-width="2.28571" stroke-linecap="round" stroke-linejoin="round"/>
</svg>
