<svg width="24" height="24" viewBox="0 0 24 24" fill="none" xmlns="http://www.w3.org/2000/svg">
<g clip-path="url(#clip0_756_2586)">
<path d="M12 21.9999C10.8181 21.9999 9.64779 21.7672 8.55586 21.3149C7.46393 20.8626 6.47178 20.1996 5.63605 19.3639C4.80032 18.5282 4.13739 17.536 3.68509 16.4441C3.2328 15.3522 3.00001 14.1818 3.00001 12.9999C3.00001 11.8181 3.2328 10.6477 3.68509 9.5558C4.13739 8.46387 4.80032 7.47171 5.63605 6.63599C6.47178 5.80026 7.46393 5.13732 8.55586 4.68503C9.64779 4.23274 10.8181 3.99995 12 3.99995C14.387 3.99995 16.6761 4.94816 18.364 6.63599C20.0518 8.32381 21 10.613 21 12.9999C21 15.3869 20.0518 17.6761 18.364 19.3639C16.6761 21.0517 14.387 21.9999 12 21.9999ZM12 19.9999C12.9193 19.9999 13.8295 19.8189 14.6788 19.4671C15.5281 19.1153 16.2997 18.5997 16.9498 17.9497C17.5998 17.2997 18.1154 16.528 18.4672 15.6787C18.819 14.8295 19 13.9192 19 12.9999C19 12.0807 18.819 11.1704 18.4672 10.3212C18.1154 9.47189 17.5998 8.70021 16.9498 8.0502C16.2997 7.40019 15.5281 6.88457 14.6788 6.53279C13.8295 6.18101 12.9193 5.99995 12 5.99995C10.1435 5.99995 8.36302 6.73745 7.05026 8.0502C5.73751 9.36296 5.00001 11.1434 5.00001 12.9999C5.00001 14.8565 5.73751 16.6369 7.05026 17.9497C8.36302 19.2625 10.1435 19.9999 12 19.9999ZM13 12.9999H16V14.9999H11V7.99995H13V12.9999ZM1.74701 6.28195L5.28201 2.74695L6.69701 4.16095L3.16001 7.69695L1.74701 6.28195ZM18.717 2.74695L22.253 6.28195L20.839 7.69695L17.303 4.16095L18.718 2.74695H18.717Z" fill="#09121F"/>
</g>
<defs>
<clipPath id="clip0_756_2586">
<rect width="24" height="24" fill="white"/>
</clipPath>
</defs>
</svg>
