<svg width="17" height="16" viewBox="0 0 17 16" fill="none" xmlns="http://www.w3.org/2000/svg">
<path d="M3.83398 4.66699H5.16732V11.3337H3.83398V4.66699ZM9.83398 4.66699H10.5007V11.3337H9.83398V4.66699ZM7.16732 4.66699H9.16732V11.3337H7.16732V4.66699ZM5.83398 4.66699H6.50065V11.3337H5.83398V4.66699ZM11.1673 4.66699H13.1673V11.3337H11.1673V4.66699Z" fill="white"/>
<path d="M3.16732 3.33333H5.83398V2H3.16732C2.43198 2 1.83398 2.598 1.83398 3.33333V6H3.16732V3.33333ZM3.16732 14H5.83398V12.6667H3.16732V10H1.83398V12.6667C1.83398 13.402 2.43198 14 3.16732 14ZM13.834 2H11.1673V3.33333H13.834V6H15.1673V3.33333C15.1673 2.598 14.5693 2 13.834 2ZM13.834 12.6667H11.1673V14H13.834C14.5693 14 15.1673 13.402 15.1673 12.6667V10H13.834V12.6667Z" fill="white"/>
</svg>
